<svg xmlns="http://www.w3.org/2000/svg" width="37.841" height="35.318"><g fill="#708670"><path d="M21.443 17.659c4.162 0 7.839-3.919 8.2-8.736a8.307 8.307 0 00-2.138-6.354 8.464 8.464 0 00-12.131-.016 8.348 8.348 0 00-2.129 6.368c.354 4.818 4.03 8.738 8.198 8.738zM37.792 32.146a13.5 13.5 0 00-6.007-8.964 19.348 19.348 0 00-20.685 0 13.5 13.5 0 00-6.006 8.967 2.787 2.787 0 00.567 2.295 2.439 2.439 0 001.907.878h27.75a2.439 2.439 0 001.909-.877 2.792 2.792 0 00.565-2.299zM6.937 20.182v-3.153h3.153a1.261 1.261 0 100-2.523H6.937v-3.153a1.261 1.261 0 10-2.523 0v3.153H1.261a1.261 1.261 0 100 2.523h3.153v3.153a1.261 1.261 0 102.523 0z"/></g></svg>