<svg xmlns="http://www.w3.org/2000/svg" width="72.235" height="83.344"><path d="M59.458 10.293a1.814 1.814 0 01-.924-.25c-7.706-4.125-14.368-5.876-22.355-5.876a44.591 44.591 0 00-22.361 5.876 1.993 1.993 0 01-2.729-.84 2.153 2.153 0 01.8-2.834 49.441 49.441 0 0148.485-.035 2.084 2.084 0 01.842 2.792 1.962 1.962 0 01-1.758 1.167zM2.018 32.171a2.037 2.037 0 01-1.163-.375 2.129 2.129 0 01-.483-2.917 41.994 41.994 0 0115.057-13.627 44.826 44.826 0 0141.38-.042 42.155 42.155 0 0115.052 13.543 2.134 2.134 0 01-.483 2.917 1.955 1.955 0 01-2.809-.5 38.118 38.118 0 00-13.606-12.251 40.9 40.9 0 00-37.729.042A38.574 38.574 0 003.589 31.289a1.736 1.736 0 01-1.571.882zm25.085 50.3a1.851 1.851 0 01-1.4-.625 42.12 42.12 0 01-8.067-11.008 38.029 38.029 0 01-4.218-18.082 22.723 22.723 0 0145.443 0 2.007 2.007 0 11-4.013 0 18.713 18.713 0 00-37.416 0 33.652 33.652 0 003.735 16.045 39.452 39.452 0 007.426 10.085 2.2 2.2 0 010 2.952 2.16 2.16 0 01-1.486.639zm28.78-7.709a21.039 21.039 0 01-12.442-3.709 22.416 22.416 0 01-9.55-18.294 2.009 2.009 0 114.014 0 18.106 18.106 0 007.789 14.842 17.122 17.122 0 0010.2 2.952 25.594 25.594 0 004.167-.417 2.008 2.008 0 012.327 1.709 2.07 2.07 0 01-1.644 2.417 26.441 26.441 0 01-4.853.5zm-8.065 8.581a2.257 2.257 0 01-.521-.083 31.478 31.478 0 01-23.642-30.5 12.362 12.362 0 0124.723 0 8.353 8.353 0 0016.7 0c0-15.71-13.045-28.462-29.1-28.462a29.2 29.2 0 00-26.531 16.79 27.719 27.719 0 00-2.368 11.668 42.822 42.822 0 002.688 15.045 2.055 2.055 0 01-1.163 2.667 1.969 1.969 0 01-2.568-1.215 47.99 47.99 0 01-2.931-16.5 32.309 32.309 0 012.729-13.5 33.19 33.19 0 0130.142-19.167c18.263 0 33.113 14.627 33.113 32.629a12.363 12.363 0 01-24.725 0 8.352 8.352 0 00-16.695-.007 26.771 26.771 0 007.507 18.793 27.15 27.15 0 0013.125 7.71 2.078 2.078 0 011.4 2.542 1.978 1.978 0 01-1.883 1.59z" fill="#fff"/></svg>