<svg xmlns="http://www.w3.org/2000/svg" width="35.318" height="35.318"><path d="M17.659 0a17.659 17.659 0 1017.659 17.659A17.664 17.664 0 0017.659 0zm-.552 27.96a1.839 1.839 0 111.839-1.839 1.839 1.839 0 01-1.839 1.839zm3.076-9.381a3.055 3.055 0 00-1.7 2.759 1.288 1.288 0 11-2.575 0 5.659 5.659 0 012.835-4.9c1.773-1.19 2.776-1.944 2.776-3.6a2.871 2.871 0 00-1.977-2.618 4.83 4.83 0 00-1.871-.284 4.014 4.014 0 00-2.56.79 3.292 3.292 0 00-1.311 2.058 1.289 1.289 0 11-2.575-.124A5.71 5.71 0 0113.5 8.724a6.558 6.558 0 014.139-1.359 7.209 7.209 0 013.009.535 5.4 5.4 0 013.45 4.937c.002 3.111-2.08 4.509-3.915 5.742z" fill="#708670"/></svg>