<svg xmlns="http://www.w3.org/2000/svg" width="21.075" height="16.847"><g opacity=".498" fill="#708670"><path d="M18.265 16.847a.7.7 0 01-.5-.206L2.314 1.186a.702.702 0 01.993-.993l15.455 15.455a.7.7 0 01-.5 1.2zM10.52 14.037a9.5 9.5 0 01-5.221-1.6 13.234 13.234 0 01-3.894-4 15.975 15.975 0 012.864-3.17.088.088 0 00.006-.129L3.4 4.265a.088.088 0 00-.119-.005A17.411 17.411 0 00.248 7.637a1.4 1.4 0 00-.028 1.56 14.67 14.67 0 004.315 4.419 10.876 10.876 0 005.985 1.828 10.5 10.5 0 003.328-.552.088.088 0 00.034-.145l-.947-.947a.176.176 0 00-.168-.044 8.993 8.993 0 01-2.246.284zM20.849 7.653a14.881 14.881 0 00-4.359-4.414 11.03 11.03 0 00-5.967-1.847 9.982 9.982 0 00-3.288.563.088.088 0 00-.033.145l.946.946a.176.176 0 00.17.044 8.467 8.467 0 012.2-.294 9.5 9.5 0 015.205 1.625 13.467 13.467 0 013.941 4 .006.006 0 010 .007 13.643 13.643 0 01-2.815 3.193.088.088 0 00-.007.13l.874.873a.088.088 0 00.119.006 15.081 15.081 0 003.014-3.446 1.414 1.414 0 000-1.531z"/><path d="M10.539 4.202a4.211 4.211 0 00-.938.105.088.088 0 00-.044.148L14.5 9.397a.088.088 0 00.148-.044 4.215 4.215 0 00-4.11-5.152zM6.577 7.437a.088.088 0 00-.148.044 4.215 4.215 0 005.049 5.049.088.088 0 00.044-.148z"/></g></svg>