<svg xmlns="http://www.w3.org/2000/svg" width="37.536" height="37.536"><path d="M18.768 3.337a57.547 57.547 0 017.507.209 9.672 9.672 0 013.545.626 7.324 7.324 0 013.545 3.545 9.672 9.672 0 01.626 3.545c0 1.877.209 2.5.209 7.507a57.546 57.546 0 01-.209 7.507 9.672 9.672 0 01-.626 3.545 7.324 7.324 0 01-3.545 3.545 9.672 9.672 0 01-3.545.626c-1.877 0-2.5.209-7.507.209a57.546 57.546 0 01-7.507-.209 9.672 9.672 0 01-3.545-.626 7.324 7.324 0 01-3.545-3.545 9.672 9.672 0 01-.626-3.545c0-1.877-.209-2.5-.209-7.507a57.547 57.547 0 01.209-7.507 9.672 9.672 0 01.626-3.545A7.49 7.49 0 015.63 5.63a3.526 3.526 0 012.085-1.46 9.672 9.672 0 013.545-.626 57.547 57.547 0 017.507-.209m0-3.337a61.617 61.617 0 00-7.716.209 12.874 12.874 0 00-4.588.834 8.164 8.164 0 00-3.335 2.087 8.164 8.164 0 00-2.085 3.337 9.5 9.5 0 00-.834 4.588A61.617 61.617 0 000 18.768a61.616 61.616 0 00.209 7.716 12.874 12.874 0 00.834 4.588 8.164 8.164 0 002.085 3.337 8.164 8.164 0 003.337 2.085 12.874 12.874 0 004.588.834 61.616 61.616 0 007.716.209 61.616 61.616 0 007.716-.209 12.874 12.874 0 004.588-.834 8.749 8.749 0 005.422-5.422 12.874 12.874 0 00.834-4.588c0-2.085.209-2.711.209-7.716a61.616 61.616 0 00-.209-7.716 12.874 12.874 0 00-.834-4.588 8.164 8.164 0 00-2.085-3.337 8.164 8.164 0 00-3.337-2.085 12.874 12.874 0 00-4.589-.833A61.616 61.616 0 0018.768 0m0 9.176a9.438 9.438 0 00-9.593 9.593 9.593 9.593 0 109.593-9.593m0 15.849a6.144 6.144 0 01-6.256-6.256 6.144 6.144 0 016.256-6.256 6.144 6.144 0 016.256 6.256 6.144 6.144 0 01-6.256 6.256m10.01-18.56a2.294 2.294 0 102.294 2.294 2.314 2.314 0 00-2.294-2.294" fill="#fff" fill-rule="evenodd"/></svg>