<svg xmlns="http://www.w3.org/2000/svg" width="194.005" height="194"><g fill="#fff" stroke="#99b898" stroke-linecap="round" stroke-miterlimit="10" stroke-width="12"><path d="M14.081 86.5a63.976 63.976 0 002.8 66.793c1.011 1.527 1.579 2.708 1.4 3.5s-5.219 27.068-5.219 27.068a3.5 3.5 0 001.186 3.36 3.574 3.574 0 002.257.779 3.175 3.175 0 001.273-.262l24.592-9.625a6.869 6.869 0 015.25.088 74.1 74.1 0 0026.613 5.25 69.655 69.655 0 0035.022-9.4"/><path d="M173.567 125.263c-.437-1.575.525-3.763 1.444-5.338a14.738 14.738 0 01.919-1.356 70.875 70.875 0 0012.075-39.506C188.136 38.725 154.099 6 112.011 6 75.305 6 44.68 30.981 37.505 64.144a70.307 70.307 0 00-1.619 14.963c0 40.381 32.725 73.981 74.813 73.981 6.694 0 15.706-2.013 20.65-3.369s9.844-3.15 11.112-3.631a11.568 11.568 0 014.069-.744 11.375 11.375 0 014.419.875l24.806 8.794a5.915 5.915 0 001.706.438 3.5 3.5 0 003.5-3.5 5.622 5.622 0 00-.219-1.181z"/></g></svg>