<svg xmlns="http://www.w3.org/2000/svg" width="209.13" height="195.048"><g fill="none" stroke="#fff" stroke-linejoin="round" stroke-width="12"><path d="M62.323 132.726V6l14.081 7.04L90.484 6l14.054 7.04L118.782 6l13.941 7.04L146.715 6l14.05 7.04 14.2-7.04 14.085 7.04L203.13 6v98.564"/><path d="M203.13 104.564v49.282a35.2 35.2 0 01-35.2 35.2h0a35.2 35.2 0 01-35.2-35.2v-21.121H13.041a6.979 6.979 0 00-7.04 7.039c0 28.161 2.966 49.282 35.2 49.282h126.727"/><path stroke-linecap="round" d="M89.991 49.048h84M118.991 84.048h55"/></g></svg>