<svg xmlns="http://www.w3.org/2000/svg" width="444.456" height="422"><g data-name="Layer 2"><g data-name="Layer 1"><g data-name="Group 6241"><path d="M77.085 115.247a16.535 16.535 0 003.688-5.137 5.276 5.276 0 00-.191-4.125l1.391-.603 1.837 2.654a16.746 16.746 0 012.803 8.022q.177 3.823-3.924 8.157l-20.13 20.718 43.074-.565 2.027 3.244-58.75.81-1.59-2.544zm3.755 79.596q-.17-4.096 3.988-8.197l3.045-3.053L77.3 166.675l-16.106-.016-2.067-3.306 58.313-.096 1.789 2.862-28.795 29.494q-4.962 5.224-2.942 9.445l-1.749.74a14.296 14.296 0 01-2.266-2.918 16.328 16.328 0 01-2.636-8.037zm.474-28.112l8.983 14.373 14.056-14.445zM104.3 232.45q.496-3.805 4.195-9.21l7.839-11.09-1.59-2.546-21.315 8.635-5.207-8.332q22.45-9.079 31.109-12.633 8.657-3.553 9.357-3.99a4.35 4.35 0 002.123-2.476 4.462 4.462 0 00-.891-3.336l-.398-.635 2.107-.875 10.971 17.554a31.802 31.802 0 014.667 11.853q.93 5.874-4.603 9.333a12.587 12.587 0 01-10.35 1.693 23.819 23.819 0 01-10.145-6.042l-8.189 11.664q-4.603 6.502-2.822 11.05l-1.75.739a8.135 8.135 0 01-1.617-1.598 22.144 22.144 0 01-1.8-2.456 10.8 10.8 0 01-1.69-7.303zm15.65-20.174a11.551 11.551 0 004.763 4.365 12.025 12.025 0 006.312 1.184 13.982 13.982 0 006.432-2.162q3.37-2.106 3.74-5.125a8.827 8.827 0 00-1.42-5.878 14.706 14.706 0 00-2.042-2.703l-1.026-1.216-19.143 7.719z" fill="#2a363b"/><g data-name="Group 5379"><path d="M424.225 75.075a16.543 16.543 0 006.216 1.175 5.278 5.278 0 003.661-1.917l1.137 1.006-1.633 2.787a16.737 16.737 0 01-6.09 5.932q-3.39 1.776-9.054-.11l-27.295-9.499 18.715 38.821-2.084 3.21-25.564-52.934 1.635-2.517zm-70.592 37.045q3.642-1.886 9.119.151l4.054 1.471 10.873-16.738-6.793-14.612 2.126-3.272 24.73 52.84-1.84 2.831-38.914-13.647q-6.834-2.29-9.807 1.324l-1.41-1.274a14.268 14.268 0 011.689-3.287 16.321 16.321 0 016.173-5.787zm25.693-11.451l-9.238 14.221 19.039 6.64zm-49.88 48.619q3.658-1.159 10.124-.09l13.37 2.422 1.635-2.517-16.838-15.68 5.355-8.243q17.72 16.521 24.603 22.871 6.88 6.349 7.573 6.799a4.353 4.353 0 003.144.879 4.463 4.463 0 002.647-2.217l.408-.63 1.684 1.54-11.281 17.368a31.83 31.83 0 01-8.777 9.242q-4.935 3.325-10.41-.23a12.592 12.592 0 01-5.91-8.671 23.82 23.82 0 011.192-11.753l-14.036-2.496q-7.844-1.427-11.214 2.11l-1.41-1.273a8.158 8.158 0 01.766-2.142 22.186 22.186 0 011.467-2.671 10.801 10.801 0 015.908-4.618zm24.907 5.665a11.546 11.546 0 00-1.945 6.163 12.042 12.042 0 001.593 6.225 13.992 13.992 0 004.68 4.919q3.333 2.165 6.226 1.226a8.838 8.838 0 004.732-3.771 14.72 14.72 0 001.587-2.996l.67-1.443-15.09-14.098z" fill="#2a363b"/><path d="M318.273 206.23l17.991 2.47a19.502 19.502 0 006.71-.205 8.396 8.396 0 004.912-2.536l1.095 1.07-4.496 6.922a9.304 9.304 0 01-5.496 4.124 18.222 18.222 0 01-7.27.378l-11.048-1.451 5.707 24.824-2.657 4.09-6.74-29.432-19.826-2.676a18.596 18.596 0 00-6.74.184 8.429 8.429 0 00-4.881 2.555l-1.136-1.006 4.496-6.922a9.343 9.343 0 015.549-4.135 18.533 18.533 0 017.259-.43l12.84 1.72-6.233-27.044 2.657-4.09z" fill="#99b898"/><path d="M227.174 38.275a16.542 16.542 0 00-2.399-5.85 5.282 5.282 0 00-3.6-2.025l.225-1.5 3.225-.15a16.738 16.738 0 018.288 1.875q3.335 1.875 4.837 7.65l6.9 28.05L267 29.5h3.825l-30.45 50.25h-3zm69.489 39q-3.564-2.025-4.838-7.725l-.975-4.2H270.9L262.35 79h-3.9l30.825-49.5h3.375l9.75 40.05q1.8 6.975 6.45 7.5l-.3 1.875a14.295 14.295 0 01-3.675.375 16.325 16.325 0 01-8.212-2.025zm-23.588-15.3h16.95l-4.8-19.575zm67.912 15.338q-2.963-2.437-5.588-8.438l-5.25-12.525h-3L323.174 79h-9.825q4.2-23.85 5.776-33.075 1.574-9.224 1.575-10.05a4.345 4.345 0 00-.976-3.112 4.458 4.458 0 00-3.3-1.013h-.75l.375-2.25h20.7a31.796 31.796 0 0112.525 2.325q5.474 2.325 5.476 8.85a12.588 12.588 0 01-4.05 9.675 23.816 23.816 0 01-10.5 5.4l5.55 13.125q3.074 7.35 7.875 8.25l-.3 1.875a8.156 8.156 0 01-2.213.525 22.138 22.138 0 01-3.037.225 10.798 10.798 0 01-7.088-2.438zm-8.813-23.963a11.547 11.547 0 006.225-1.725 12.024 12.024 0 004.35-4.725 13.983 13.983 0 001.576-6.6q0-3.974-2.363-5.888a8.829 8.829 0 00-5.738-1.912 14.708 14.708 0 00-3.375.3l-1.575.225-3.6 20.325z" fill="#2a363b"/><circle data-name="Ellipse 303" cx="222.239" cy="307" r="112" fill="none" stroke="#99b898" stroke-linecap="round" stroke-linejoin="round" stroke-width="6"/><circle data-name="Ellipse 304" cx="222.239" cy="307" r="48" fill="none" stroke="#99b898" stroke-linecap="round" stroke-linejoin="round" stroke-width="6"/><path data-name="Path 4446" d="M113.239 278L8.079 114.32a32 32 0 01-1.7-31.61l31-62A32 32 0 0166.019 3h312.44a32 32 0 0128.619 17.688l31 62a32 32 0 01-1.7 31.61L331.238 278" fill="none" stroke="#99b898" stroke-linecap="round" stroke-linejoin="round" stroke-width="6"/><path data-name="Line 51" fill="none" stroke="#99b898" stroke-linecap="round" stroke-linejoin="round" stroke-width="6" d="M337.239 99h-334"/><path data-name="Line 52" fill="none" stroke="#99b898" stroke-linecap="round" stroke-linejoin="round" stroke-width="6" d="M394.979 7.6L271.239 205"/><path data-name="Line 53" fill="none" stroke="#99b898" stroke-linecap="round" stroke-linejoin="round" stroke-width="6" d="M106.789 99l66.45 106"/><g data-name="Group 5612" fill="#99b898"><path data-name="Path 12325" d="M236.358 293.77a21.156 21.156 0 01-.572 5.02c-.1.441-.012.62.442.764a21.224 21.224 0 016.364 3.062 8.749 8.749 0 012.017 1.99 4.078 4.078 0 01-.062 5.157 10.868 10.868 0 01-3.334 2.817 23.494 23.494 0 01-4.986 2.162c-.361.113-.49.219-.4.645a21.327 21.327 0 01.54 6.8 9.442 9.442 0 01-.68 2.786 4.241 4.241 0 01-4.973 2.656 14.8 14.8 0 01-6.08-2.9 22.625 22.625 0 01-2.158-1.775c-.23-.215-.36-.219-.6 0a21.824 21.824 0 01-5.835 3.978 7.72 7.72 0 01-3.93.785 3.984 3.984 0 01-3.222-2.23 9.256 9.256 0 01-.98-4.019 23.306 23.306 0 01.523-5.822c.177-.894.279-.674-.571-.961a20.625 20.625 0 01-6.8-3.506 7.473 7.473 0 01-1.587-1.78 3.961 3.961 0 01.018-4.536 10.064 10.064 0 013.515-3.12 22.694 22.694 0 015.03-2.183c.407-.124.507-.27.415-.691a20.6 20.6 0 01-.467-7.3 8.516 8.516 0 01.584-2.2 4.307 4.307 0 015.178-2.7 15.075 15.075 0 016.043 2.98 25.419 25.419 0 011.959 1.625c.295.27.458.233.729-.014a22.067 22.067 0 015.712-3.9 9.978 9.978 0 012.825-.812 4.2 4.2 0 014.44 2.387 9.629 9.629 0 01.894 3.74c.03.366.009.731.009 1.095zm-14.152 5.86c-1.321-.028-2.637.054-3.954.124a.759.759 0 00-.648.375 52.591 52.591 0 00-3.88 6.707.671.671 0 00-.01.651 52.436 52.436 0 003.935 6.733.679.679 0 00.568.329 59.206 59.206 0 007.807 0 .77.77 0 00.649-.373 53.555 53.555 0 003.858-6.662.8.8 0 00-.012-.786 52.325 52.325 0 00-3.862-6.6.753.753 0 00-.647-.374c-1.27-.064-2.54-.149-3.804-.124zm-12.195 20.825c0 .249-.014.5 0 .746a8.185 8.185 0 00.683 3.181 2.06 2.06 0 002.275 1.246 7.1 7.1 0 002.344-.669 21.182 21.182 0 005.119-3.536c.242-.214.1-.322-.04-.47a42.584 42.584 0 01-3.49-4.16.769.769 0 00-.576-.339 38.057 38.057 0 01-5.225-.883c-.343-.084-.506-.019-.576.353a25.015 25.015 0 00-.514 4.532zm24.247-26.658c0-.281.017-.564 0-.845a7.9 7.9 0 00-.69-3.079 2.1 2.1 0 00-2.388-1.219 7.57 7.57 0 00-1.92.538 20.386 20.386 0 00-5.4 3.647c-.27.235-.092.35.054.507a43.07 43.07 0 013.387 4.052 1 1 0 00.782.441 38.925 38.925 0 015.174.879c.3.073.41 0 .469-.294a23.15 23.15 0 00.53-4.627zm9.128 13.357a2.273 2.273 0 00-.34-1.076 5.9 5.9 0 00-1.564-1.655 20.013 20.013 0 00-6.032-2.929c-.24-.077-.322-.026-.39.2a43.573 43.573 0 01-1.927 5.205.528.528 0 00.014.469 43.437 43.437 0 011.937 5.2c.058.2.125.29.379.207a21.867 21.867 0 005.257-2.384 7.841 7.841 0 002.143-1.918 2.544 2.544 0 00.523-1.319zm-34.436-5.693c-.047.017-.093.037-.141.052a20.511 20.511 0 00-5.517 2.541 7.099 7.099 0 00-1.92 1.8 2.008 2.008 0 00.023 2.613 5.793 5.793 0 001.1 1.153 19.409 19.409 0 006.354 3.177c.276.09.3-.045.36-.238a44.498 44.498 0 011.9-5.118.526.526 0 00.043-.47 44.382 44.382 0 01-1.984-5.3c-.033-.093-.037-.251-.218-.209zm25.34 18.846a21.885 21.885 0 00-.54-4.476c-.055-.28-.152-.367-.46-.291a39.191 39.191 0 01-5.368.912.648.648 0 00-.5.282 41.73 41.73 0 01-3.507 4.2c-.237.248-.154.361.055.543a25.82 25.82 0 003.043 2.339 11.038 11.038 0 003.957 1.723 2.2 2.2 0 002.771-1.414c.017-.053.033-.107.046-.16a9.76 9.76 0 00.503-3.657zm-24.307-26.517a21.494 21.494 0 00.542 4.624c.046.223.1.412.412.331a42.878 42.878 0 015.466-.945.6.6 0 00.449-.264 42.434 42.434 0 013.51-4.206c.2-.208.189-.328-.023-.512-.666-.578-1.34-1.148-2.056-1.664a12.744 12.744 0 00-4.84-2.4 2.267 2.267 0 00-3 1.66 9.407 9.407 0 00-.46 3.376zm14.758 3.778a35.081 35.081 0 00-2.465-2.853c-.113-.12-.2-.144-.323-.011a34.458 34.458 0 00-2.448 2.861 59.32 59.32 0 015.236.004zm.014 19.156c-1.771.061-3.44.043-5.222.007a37.321 37.321 0 002.45 2.82c.214.22.312.042.429-.084a34.572 34.572 0 002.343-2.742zm7.05-7.045c-.8 1.564-1.654 3-2.593 4.5 1.284-.2 2.443-.417 3.6-.679.283-.064.29-.191.218-.419-.36-1.119-.734-2.229-1.224-3.4zm-16.73-9.6c-1.087.2-2.034.377-2.98.559-.976.188-.985.2-.673 1.123a26.094 26.094 0 001.047 2.811 59.842 59.842 0 012.602-4.495zm14.139.045a60.556 60.556 0 012.6 4.434c.42-1.037.77-2.015 1.07-3.012.213-.7.217-.713-.5-.863a31.867 31.867 0 00-3.171-.56zm-16.756 9.6a43.693 43.693 0 00-1.208 3.424c-.082.262.027.313.237.354.768.15 1.533.314 2.3.462.392.075.79.127 1.279.2a55.678 55.678 0 01-2.61-4.441z"/><path data-name="Path 12326" d="M226.47 307.124a4.328 4.328 0 01-4.322 4.334h-.024a4.314 4.314 0 11-.022-8.627h.04a4.316 4.316 0 014.328 4.293z"/></g><path d="M51.587 77.275q-3.563-2.025-4.837-7.725l-.975-4.2h-19.95L17.274 79h-3.9l30.824-49.5h3.375l9.75 40.05q1.8 6.975 6.45 7.5l-.3 1.875a14.294 14.294 0 01-3.675.375 16.327 16.327 0 01-8.212-2.025zM28 61.975h16.95L40.15 42.4zm67.91 15.338q-2.963-2.437-5.587-8.438l-5.25-12.525h-3L78.098 79h-9.824q4.199-23.85 5.774-33.075 1.575-9.224 1.576-10.05a4.347 4.347 0 00-.975-3.112 4.458 4.458 0 00-3.3-1.013h-.75l.374-2.25h20.7a31.799 31.799 0 0112.525 2.325q5.474 2.325 5.475 8.85a12.587 12.587 0 01-4.05 9.675 23.814 23.814 0 01-10.5 5.4l5.55 13.125q3.075 7.35 7.875 8.25l-.3 1.875a8.146 8.146 0 01-2.212.525 22.133 22.133 0 01-3.037.225 10.799 10.799 0 01-7.088-2.438zM87.099 53.35a11.55 11.55 0 006.225-1.725 12.027 12.027 0 004.35-4.725 13.983 13.983 0 001.576-6.6q0-3.974-2.363-5.888A8.83 8.83 0 0091.15 32.5a14.703 14.703 0 00-3.375.3l-1.576.225-3.6 20.325z" fill="#2a363b"/><path d="M149.724 55.675l-7.725-16.425a19.505 19.505 0 00-3.826-5.513 8.392 8.392 0 00-4.8-2.737l.3-1.5h8.25a9.292 9.292 0 016.45 2.362 18.17 18.17 0 014.276 5.888l4.8 10.05 17.7-18.3h4.875l-21 21.675 8.55 18.075a18.619 18.619 0 003.825 5.55 8.435 8.435 0 004.8 2.7l-.225 1.5h-8.25a9.335 9.335 0 01-6.488-2.4 18.513 18.513 0 01-4.313-5.85l-5.55-11.7L132.1 79h-4.875z" fill="#99b898"/></g></g></g></g></svg>