<svg xmlns="http://www.w3.org/2000/svg" width="85" height="78.605"><g opacity=".252" fill="#99b898"><path d="M77.176 6.269a18.422 18.422 0 01-.49 4.335c-.088.381-.01.535.379.659a18.116 18.116 0 015.448 2.644 7.516 7.516 0 011.726 1.718 3.545 3.545 0 01-.053 4.453 9.326 9.326 0 01-2.854 2.432 20.037 20.037 0 01-4.269 1.867c-.309.1-.419.189-.34.557a18.573 18.573 0 01.463 5.874 8.209 8.209 0 01-.583 2.405 3.625 3.625 0 01-4.258 2.294 12.622 12.622 0 01-5.2-2.506 19.459 19.459 0 01-1.849-1.533c-.2-.185-.308-.189-.512 0a18.682 18.682 0 01-5 3.435 6.563 6.563 0 01-3.363.678 3.412 3.412 0 01-2.76-1.926 8.05 8.05 0 01-.839-3.471 20.289 20.289 0 01.448-5.027c.152-.772.239-.582-.489-.83a17.6 17.6 0 01-5.82-3.027 6.437 6.437 0 01-1.359-1.536 3.444 3.444 0 01.015-3.918 8.639 8.639 0 013.009-2.694 19.361 19.361 0 014.306-1.885c.348-.107.434-.233.355-.6a17.933 17.933 0 01-.4-6.3 7.4 7.4 0 01.5-1.9A3.681 3.681 0 0157.82.136a12.857 12.857 0 015.174 2.574 21.792 21.792 0 011.677 1.4c.252.233.392.2.624-.012a18.879 18.879 0 014.89-3.366 8.472 8.472 0 012.418-.7 3.585 3.585 0 013.8 2.06 8.376 8.376 0 01.766 3.23c.027.317.007.633.007.947zm-12.116 5.06c-1.131-.024-2.258.046-3.385.107a.649.649 0 00-.555.324 45.545 45.545 0 00-3.322 5.791.583.583 0 00-.008.562 45.341 45.341 0 003.368 5.814.58.58 0 00.486.284 50.173 50.173 0 006.684 0 .658.658 0 00.556-.322 46.351 46.351 0 003.3-5.753.7.7 0 00-.01-.679 45.284 45.284 0 00-3.307-5.7.644.644 0 00-.554-.323c-1.082-.055-2.167-.127-3.253-.105zM54.62 29.312c0 .215-.012.43 0 .644a7.12 7.12 0 00.585 2.747 1.76 1.76 0 001.947 1.076 6.042 6.042 0 002.007-.578 18.133 18.133 0 004.382-3.053c.208-.185.088-.278-.033-.406a36.74 36.74 0 01-2.989-3.592.658.658 0 00-.493-.293 32.345 32.345 0 01-4.473-.763c-.293-.073-.433-.017-.493.305a21.775 21.775 0 00-.441 3.912zM75.378 6.293c0-.243.015-.487 0-.729a6.866 6.866 0 00-.59-2.658 1.79 1.79 0 00-2.046-1.052 6.451 6.451 0 00-1.644.464 17.455 17.455 0 00-4.621 3.149c-.23.2-.079.3.047.438a37.079 37.079 0 012.9 3.5.859.859 0 00.669.381 32.995 32.995 0 014.43.759c.259.063.352 0 .4-.254a20.155 20.155 0 00.455-3.999zm7.818 11.533a1.974 1.974 0 00-.29-.929 5.066 5.066 0 00-1.34-1.429 17.061 17.061 0 00-5.165-2.529c-.2-.067-.276-.023-.333.174a37.867 37.867 0 01-1.65 4.495.459.459 0 00.012.4 37.722 37.722 0 011.658 4.492c.05.173.107.25.325.179a18.647 18.647 0 004.5-2.059 6.728 6.728 0 001.835-1.656 2.209 2.209 0 00.448-1.138zm-29.482-4.915c-.04.015-.079.032-.12.045a17.493 17.493 0 00-4.723 2.194 6.1 6.1 0 00-1.644 1.553 1.746 1.746 0 00.02 2.256 4.988 4.988 0 00.941 1 16.568 16.568 0 005.44 2.743c.236.078.26-.039.309-.206a38.616 38.616 0 011.623-4.419.458.458 0 00.036-.406 38.5 38.5 0 01-1.7-4.574c-.027-.086-.03-.218-.185-.187zm21.692 16.268a19.057 19.057 0 00-.464-3.865c-.047-.241-.13-.317-.394-.252a33.277 33.277 0 01-4.6.788.555.555 0 00-.427.244 36 36 0 01-3 3.63c-.2.214-.132.311.047.469a22.149 22.149 0 002.606 2.02 9.408 9.408 0 003.388 1.488 1.882 1.882 0 002.412-1.36 8.494 8.494 0 00.432-3.162zM54.596 6.286a18.712 18.712 0 00.464 3.993c.039.193.082.355.352.286a36.368 36.368 0 014.68-.815.511.511 0 00.384-.228 36.573 36.573 0 013-3.632c.17-.18.161-.283-.02-.442-.57-.5-1.147-.991-1.76-1.437a10.873 10.873 0 00-4.143-2.073 1.939 1.939 0 00-2.567 1.434 8.184 8.184 0 00-.39 2.914zm12.635 3.263a30.189 30.189 0 00-2.11-2.463c-.1-.1-.169-.125-.276-.01a29.625 29.625 0 00-2.1 2.471 48.637 48.637 0 014.486.002zm.012 16.541c-1.516.053-2.945.037-4.471.006.7.9 1.382 1.684 2.1 2.436.182.191.266.036.367-.072a29.793 29.793 0 002.003-2.37zm6.036-6.084a51.203 51.203 0 01-2.221 3.886c1.1-.169 2.092-.36 3.078-.586.243-.055.248-.165.187-.362a35.116 35.116 0 00-1.044-2.938zm-14.324-8.291c-.931.176-1.742.325-2.552.483-.836.163-.844.169-.576.97a22.678 22.678 0 00.9 2.428 50.16 50.16 0 012.227-3.881zm12.1.039a50.964 50.964 0 012.222 3.829c.359-.9.659-1.74.917-2.6.182-.606.185-.616-.425-.745a27.125 27.125 0 00-2.71-.484zm-14.346 8.29a38.532 38.532 0 00-1.035 2.957c-.071.227.023.27.2.306.658.13 1.313.271 1.971.4.336.065.677.11 1.1.177a49.485 49.485 0 01-2.231-3.84z"/><path d="M68.706 17.799a3.713 3.713 0 11-3.705-3.708 3.721 3.721 0 013.705 3.708zM32.176 49.269a18.422 18.422 0 01-.49 4.335c-.088.381-.01.535.379.659a18.116 18.116 0 015.448 2.644 7.516 7.516 0 011.726 1.718 3.545 3.545 0 01-.053 4.453 9.326 9.326 0 01-2.854 2.432 20.037 20.037 0 01-4.269 1.867c-.309.1-.419.189-.34.557a18.573 18.573 0 01.463 5.874 8.209 8.209 0 01-.583 2.405 3.625 3.625 0 01-4.258 2.294 12.622 12.622 0 01-5.2-2.506 19.459 19.459 0 01-1.849-1.533c-.2-.185-.308-.189-.512 0a18.682 18.682 0 01-5 3.435 6.563 6.563 0 01-3.363.678 3.412 3.412 0 01-2.76-1.926 8.05 8.05 0 01-.839-3.471 20.289 20.289 0 01.448-5.027c.152-.772.239-.582-.489-.83a17.6 17.6 0 01-5.82-3.027 6.437 6.437 0 01-1.359-1.536 3.444 3.444 0 01.015-3.918 8.639 8.639 0 013.009-2.694 19.361 19.361 0 014.306-1.885c.348-.107.434-.233.355-.6a17.933 17.933 0 01-.4-6.3 7.4 7.4 0 01.5-1.9 3.681 3.681 0 014.433-2.331 12.857 12.857 0 015.174 2.574 21.792 21.792 0 011.677 1.4c.252.233.392.2.624-.012a18.879 18.879 0 014.89-3.366 8.472 8.472 0 012.418-.7 3.585 3.585 0 013.8 2.06 8.376 8.376 0 01.766 3.23c.027.317.007.633.007.947zm-12.116 5.06c-1.131-.024-2.258.046-3.385.107a.649.649 0 00-.555.324 45.545 45.545 0 00-3.322 5.791.583.583 0 00-.008.562 45.341 45.341 0 003.368 5.814.58.58 0 00.486.284 50.173 50.173 0 006.684 0 .658.658 0 00.556-.322 46.351 46.351 0 003.3-5.753.7.7 0 00-.01-.679 45.284 45.284 0 00-3.307-5.7.644.644 0 00-.554-.323c-1.082-.055-2.167-.127-3.253-.105zM9.62 72.312c0 .215-.012.43 0 .644a7.12 7.12 0 00.585 2.747 1.76 1.76 0 001.947 1.076 6.042 6.042 0 002.007-.578 18.133 18.133 0 004.382-3.053c.208-.185.088-.278-.033-.406a36.74 36.74 0 01-2.989-3.592.658.658 0 00-.493-.293 32.345 32.345 0 01-4.473-.763c-.293-.073-.433-.017-.493.305a21.775 21.775 0 00-.441 3.912zm20.758-23.019c0-.243.015-.487 0-.729a6.866 6.866 0 00-.59-2.658 1.79 1.79 0 00-2.046-1.052 6.451 6.451 0 00-1.644.464 17.455 17.455 0 00-4.621 3.149c-.23.2-.079.3.047.438a37.079 37.079 0 012.9 3.5.859.859 0 00.669.381 32.995 32.995 0 014.43.759c.259.063.352 0 .4-.254a20.155 20.155 0 00.455-3.999zm7.818 11.533a1.974 1.974 0 00-.29-.929 5.066 5.066 0 00-1.34-1.429 17.061 17.061 0 00-5.165-2.529c-.2-.067-.276-.023-.333.174a37.867 37.867 0 01-1.65 4.495.459.459 0 00.012.4 37.722 37.722 0 011.658 4.492c.05.173.107.25.325.179a18.647 18.647 0 004.5-2.059 6.728 6.728 0 001.835-1.656 2.209 2.209 0 00.448-1.138zM8.714 55.911c-.04.015-.079.032-.12.045a17.493 17.493 0 00-4.723 2.194 6.1 6.1 0 00-1.644 1.553 1.746 1.746 0 00.02 2.256 4.988 4.988 0 00.941 1 16.568 16.568 0 005.44 2.743c.236.078.26-.039.309-.206a38.616 38.616 0 011.623-4.419.458.458 0 00.036-.406 38.5 38.5 0 01-1.7-4.574c-.027-.086-.03-.218-.185-.187zm21.692 16.268a19.057 19.057 0 00-.464-3.865c-.047-.241-.13-.317-.394-.252a33.277 33.277 0 01-4.6.788.555.555 0 00-.427.244 36 36 0 01-3 3.63c-.2.214-.132.311.047.469a22.149 22.149 0 002.606 2.02 9.408 9.408 0 003.388 1.488 1.882 1.882 0 002.412-1.36 8.494 8.494 0 00.432-3.162zM9.596 49.286a18.712 18.712 0 00.464 3.993c.039.193.082.355.352.286a36.368 36.368 0 014.68-.815.511.511 0 00.384-.228 36.573 36.573 0 013-3.632c.17-.18.161-.283-.02-.442-.57-.5-1.147-.991-1.76-1.437a10.873 10.873 0 00-4.143-2.073 1.939 1.939 0 00-2.567 1.434 8.184 8.184 0 00-.39 2.914zm12.635 3.263a30.189 30.189 0 00-2.11-2.463c-.1-.1-.169-.125-.276-.01a29.625 29.625 0 00-2.1 2.471 48.637 48.637 0 014.486.002zm.012 16.541c-1.516.053-2.945.037-4.471.006.7.9 1.382 1.684 2.1 2.436.182.191.266.036.367-.072a29.793 29.793 0 002.003-2.37zm6.036-6.084a51.203 51.203 0 01-2.221 3.886c1.1-.169 2.092-.36 3.078-.586.243-.055.248-.165.187-.362a35.116 35.116 0 00-1.044-2.938zm-14.324-8.291c-.931.176-1.742.325-2.552.483-.836.163-.844.169-.576.97a22.678 22.678 0 00.9 2.428 50.16 50.16 0 012.227-3.881zm12.1.039a50.964 50.964 0 012.222 3.829c.359-.9.659-1.74.917-2.6.182-.606.185-.616-.425-.745a27.125 27.125 0 00-2.71-.484zm-14.346 8.29a38.532 38.532 0 00-1.035 2.957c-.071.227.023.27.2.306.658.13 1.313.271 1.971.4.336.065.677.11 1.1.177a49.485 49.485 0 01-2.231-3.84z"/><path d="M23.706 60.799a3.713 3.713 0 11-3.705-3.708 3.721 3.721 0 013.705 3.708z"/></g></svg>