<svg xmlns="http://www.w3.org/2000/svg" width="46.762" height="46.762"><path d="M36.523 2.486a3.366 3.366 0 00-2.381-.986H6.362A4.861 4.861 0 001.5 6.363V40.4a4.861 4.861 0 004.863 4.862H40.4a4.877 4.877 0 004.862-4.862V12.619a3.367 3.367 0 00-.986-2.381zM23.381 40.212a6.724 6.724 0 114.763-1.969 6.733 6.733 0 01-4.763 1.969zm5.049-23.564H8.23a1.683 1.683 0 01-1.683-1.683V8.233A1.683 1.683 0 018.23 6.55h20.2a1.683 1.683 0 011.683 1.683v6.733a1.683 1.683 0 01-1.683 1.682z" fill="none" stroke="#fff" stroke-linecap="round" stroke-linejoin="round" stroke-width="3"/></svg>