<svg xmlns="http://www.w3.org/2000/svg" width="183.036" height="181.279"><path d="M179.837 84.598l-11.476-1.848a3.52 3.52 0 01-2.9-3c-.22-1.408-.44-2.821-.748-4.185a3.555 3.555 0 011.716-3.793l10.16-5.641a3.542 3.542 0 001.716-4.365l-1.76-4.84a3.494 3.494 0 00-4.136-2.2l-11.392 2.2a3.52 3.52 0 01-3.78-1.809q-.99-1.848-2.112-3.7a3.591 3.591 0 01.308-4.189l7.608-8.774a3.52 3.52 0 00.132-4.673l-3.3-3.96a3.467 3.467 0 00-4.62-.664l-9.984 6a3.52 3.52 0 01-4.132-.4 98.51 98.51 0 00-3.256-2.737 3.52 3.52 0 01-1.1-4.009l4.136-10.89a3.52 3.52 0 00-1.43-4.466l-4.486-2.601a3.52 3.52 0 00-4.572.972l-7.322 9.17a3.146 3.146 0 01-3.74 1.1s-2.464-1.012-4.312-1.632a3.52 3.52 0 01-2.407-3.388l.176-11.639a3.551 3.551 0 00-2.9-3.7l-5.1-.88a3.551 3.551 0 00-4 2.469L97.04 13.548a3.52 3.52 0 01-3.428 2.381H89.3a3.551 3.551 0 01-3.428-2.381L82.088 2.526a3.551 3.551 0 00-4-2.469l-5.1.88a3.551 3.551 0 00-2.9 3.7l.176 11.639a3.52 3.52 0 01-2.416 3.393c-1.012.4-3.212 1.236-4.268 1.632a3.5 3.5 0 01-3.872-1.28l-7.265-8.95a3.52 3.52 0 00-4.572-.955l-4.488 2.6a3.494 3.494 0 00-1.452 4.44l4.136 10.891a3.547 3.547 0 01-1.1 4.009c-1.1.88-2.2 1.809-3.256 2.737a3.52 3.52 0 01-4.132.4l-9.839-6.09a3.52 3.52 0 00-4.62.664l-3.3 3.96a3.52 3.52 0 00.132 4.673l7.608 8.774a3.52 3.52 0 01.308 4.189q-1.122 1.76-2.112 3.7a3.569 3.569 0 01-3.78 1.809l-11.392-2.2a3.52 3.52 0 00-4.136 2.2l-1.76 4.84a3.542 3.542 0 001.716 4.365l10.147 5.645a3.494 3.494 0 011.716 3.793c-.264 1.408-.528 2.777-.748 4.185a3.555 3.555 0 01-2.9 3L3.143 84.548A3.56 3.56 0 00.001 88.03v5.159a3.459 3.459 0 003.124 3.485l11.476 1.846a3.52 3.52 0 012.9 3c.22 1.408.44 2.821.748 4.185a3.555 3.555 0 01-1.716 3.793l-10.16 5.65a3.542 3.542 0 00-1.716 4.365l1.76 4.84a3.494 3.494 0 004.136 2.2l11.392-2.2a3.52 3.52 0 013.78 1.808q.99 1.848 2.112 3.7a3.591 3.591 0 01-.308 4.189l-7.608 8.783a3.52 3.52 0 00-.132 4.673l3.3 3.96a3.467 3.467 0 004.62.664l9.984-6a3.52 3.52 0 014.132.4 98.51 98.51 0 003.256 2.737 3.52 3.52 0 011.1 4.009l-4.136 10.89a3.52 3.52 0 001.456 4.453l4.488 2.6a3.52 3.52 0 004.572-.972l7.388-9.082a3.227 3.227 0 013.608-1.144c1.5.616 2.508.968 4.356 1.588a3.52 3.52 0 012.416 3.393l-.176 11.639a3.551 3.551 0 002.9 3.7l5.1.88a3.551 3.551 0 004-2.469l3.784-11a3.52 3.52 0 013.428-2.381h4.312a3.551 3.551 0 013.428 2.38l3.784 11a3.551 3.551 0 004 2.469l5.1-.88a3.551 3.551 0 002.9-3.7l-.176-11.639a3.52 3.52 0 012.416-3.393c1.848-.62 3.08-1.1 4.224-1.544a3 3 0 013.652.924l7.48 9.214a3.52 3.52 0 004.589.959l4.488-2.6a3.489 3.489 0 001.452-4.453l-4.123-10.889a3.555 3.555 0 011.1-4.013c1.1-.88 2.2-1.8 3.256-2.733a3.52 3.52 0 014.132-.4l9.949 6.015a3.52 3.52 0 004.62-.664l3.3-3.96a3.52 3.52 0 00-.132-4.673l-7.608-8.774a3.52 3.52 0 01-.308-4.189q1.122-1.782 2.112-3.7a3.569 3.569 0 013.78-1.809l11.392 2.2a3.52 3.52 0 004.136-2.2l1.76-4.84a3.542 3.542 0 00-1.716-4.365l-10.16-5.641a3.494 3.494 0 01-1.716-3.793c.264-1.408.528-2.777.748-4.185a3.555 3.555 0 012.9-3l11.476-1.848a3.56 3.56 0 003.124-3.485v-5.163a3.63 3.63 0 00-3.199-3.401zM91.525 27.276a63.284 63.284 0 0161.33 47.575 7.04 7.04 0 01-6.834 8.748H99.714a7.041 7.041 0 01-6.121-3.561L70.668 39.689a7.04 7.04 0 014.333-10.3 64.656 64.656 0 0116.523-2.117zM28.162 90.639a63.363 63.363 0 0119.207-45.5 7.04 7.04 0 0111.075 1.527l22.987 40.453a7.04 7.04 0 010 6.983l-23.176 40.35a7.04 7.04 0 01-11.08 1.478 63.336 63.336 0 01-19.013-45.291zm63.363 63.363a64.64 64.64 0 01-16.8-2.178 7.04 7.04 0 01-4.295-10.314l23.136-40.284a7.04 7.04 0 016.107-3.52h46.374a7.04 7.04 0 016.829 8.748 63.293 63.293 0 01-61.351 47.548z" fill="#fff"/></svg>