<svg xmlns="http://www.w3.org/2000/svg" width="82.893" height="84.469"><path d="M80.982 42.42a3.543 3.543 0 00-2.241-1.823L42.789 26.292a4.567 4.567 0 00-2.722 0L4.151 40.605a3.518 3.518 0 00-2.268 1.83 3.819 3.819 0 00-.192 2.9l8.937 22.885a1.433 1.433 0 001.435.891 21.277 21.277 0 0013.134-6.242 1.471 1.471 0 012.015 0c3.711 3.553 8.649 6.242 14.219 6.242s10.479-2.689 14.19-6.25a1.473 1.473 0 012.017 0 21.276 21.276 0 0013.134 6.25 1.431 1.431 0 001.433-.885l8.97-22.887a3.89 3.89 0 00-.193-2.919z" fill="none" stroke="#fff" stroke-miterlimit="10" stroke-width="3"/><path d="M72.161 83.16a1.314 1.314 0 00-.684-1.152 54.583 54.583 0 01-12.029-9.219 1.93 1.93 0 00-2.443-.29 28.243 28.243 0 01-31.105.01 1.938 1.938 0 00-2.462.3 52.017 52.017 0 01-11.991 9.171 1.373 1.373 0 00-.747 1.1 1.293 1.293 0 001.521 1.373 43.8 43.8 0 0011.562-4.577 1.673 1.673 0 011.537-.012 35.559 35.559 0 0032.244 0 1.694 1.694 0 011.554.012 44.66 44.66 0 0011.524 4.571 1.291 1.291 0 001.526-1.287z" fill="#fff"/><path d="M53.722 10.719V6.11a4.623 4.623 0 00-4.61-4.61H33.747a4.623 4.623 0 00-4.61 4.61v4.61" fill="none" stroke="#fff" stroke-linecap="round" stroke-linejoin="round" stroke-width="3"/><path d="M72.161 37.032V19.938a9.246 9.246 0 00-9.22-9.219H19.918a9.246 9.246 0 00-9.219 9.219v17.67M41.43 27.544v40.882" fill="none" stroke="#fff" stroke-linecap="round" stroke-linejoin="round" stroke-width="3"/></svg>