<svg xmlns="http://www.w3.org/2000/svg" width="176.775" height="168.274"><path d="M79.462 159.788l89.939-89.939a4.741 4.741 0 001.373-3.433V22.477" fill="#fff" stroke="#99b898" stroke-linecap="round" stroke-linejoin="round" stroke-width="12"/><path d="M138.948 6h-42.2a4.964 4.964 0 00-3.5 1.442L8.883 91.785a9.9 9.9 0 000 13.971l40.164 40.164a9.907 9.907 0 0013.975 0l84.34-84.309a4.964 4.964 0 001.442-3.5V15.886A9.838 9.838 0 00138.948 6z" fill="#fff" stroke="#99b898" stroke-linecap="round" stroke-linejoin="round" stroke-width="12"/><path d="M121.342 44.447a10.985 10.985 0 1110.985-10.985 10.985 10.985 0 01-10.985 10.985z" fill="#ccdccc"/></svg>