<svg xmlns="http://www.w3.org/2000/svg" width="21.002" height="22.502"><g fill="#fff"><path d="M18.752 7.5H13.5V2.25A2.25 2.25 0 0011.251 0h-9A2.25 2.25 0 000 2.25v19.5a.75.75 0 00.75.75h4.875A.375.375 0 006 22.127v-3.354a.765.765 0 01.714-.77.75.75 0 01.786.749v3.375a.375.375 0 00.375.375h12.377a.75.75 0 00.75-.75v-12a2.25 2.25 0 00-2.25-2.252zM3.1 19.5a.75.75 0 11.646-.646.75.75 0 01-.646.646zm0-3.75a.75.75 0 11.646-.646.75.75 0 01-.646.641zm0-3.75a.75.75 0 11.646-.646A.75.75 0 013.1 12zm0-3.75a.75.75 0 11.646-.646.75.75 0 01-.646.641zm0-3.75a.75.75 0 11.646-.646.75.75 0 01-.646.64zm3.75 11.251a.75.75 0 11.646-.646.75.75 0 01-.648.64zm0-3.75a.75.75 0 11.646-.646.75.75 0 01-.648.645zm0-3.75a.75.75 0 11.646-.646.75.75 0 01-.648.64zm0-3.75a.75.75 0 11.646-.646.75.75 0 01-.648.639zm3.75 15a.75.75 0 11.646-.646.75.75 0 01-.646.646zm0-3.75a.75.75 0 11.646-.646.75.75 0 01-.646.64zm0-3.75a.75.75 0 11.646-.646.75.75 0 01-.646.645zm0-3.75a.75.75 0 11.646-.646.75.75 0 01-.646.64zm0-3.75a.75.75 0 11.646-.646.75.75 0 01-.646.639zM19.314 21H13.5V9h5.25a.75.75 0 01.75.75v11.064a.188.188 0 01-.186.186z"/><path d="M17.252 18.002a.75.75 0 10.75.75.75.75 0 00-.75-.75zM17.252 14.251a.75.75 0 10.75.75.75.75 0 00-.75-.75zM17.252 10.501a.75.75 0 10.75.75.75.75 0 00-.75-.75zM14.251 18.002a.75.75 0 10.75.75.75.75 0 00-.75-.75zM14.251 14.251a.75.75 0 10.75.75.75.75 0 00-.75-.75zM14.251 10.501a.75.75 0 10.75.75.75.75 0 00-.75-.75z"/></g></svg>