<svg xmlns="http://www.w3.org/2000/svg" width="172" height="172"><g transform="translate(-42 -42)"><rect width="160" height="148" rx="24" transform="translate(48 60)" fill="none" stroke="#fff" stroke-linejoin="round" stroke-width="12"/><path d="M182.519 60.305H73.449A25.678 25.678 0 0048 86.146v23.38h6.153c0-6.153 6.153-12.305 12.305-12.305H189.51c6.153 0 12.305 6.153 12.305 12.305h6.153v-23.38a25.678 25.678 0 00-25.449-25.841z" fill="#fff"/><ellipse cx="9.5" cy="9" rx="9.5" ry="9" transform="translate(134 110)" fill="#fff"/><circle cx="9" cy="9" r="9" transform="translate(165 110)" fill="#fff"/><circle cx="9.5" cy="9.5" r="9.5" transform="translate(134 140)" fill="#fff"/><ellipse cx="10" cy="9.5" rx="10" ry="9.5" transform="translate(165 140)" fill="#fff"/><ellipse cx="10" cy="9.5" rx="10" ry="9.5" transform="translate(71 140)" fill="#fff"/><circle cx="9.5" cy="9.5" r="9.5" transform="translate(103 140)" fill="#fff"/><ellipse cx="10" cy="9.5" rx="10" ry="9.5" transform="translate(71 171)" fill="#fff"/><circle cx="9.5" cy="9.5" r="9.5" transform="translate(103 171)" fill="#fff"/><circle cx="9.5" cy="9.5" r="9.5" transform="translate(134 171)" fill="#fff"/><path fill="none" stroke="#fff" stroke-linecap="round" stroke-linejoin="round" stroke-width="12" d="M79 48v12M177 48v12"/></g></svg>