<svg xmlns="http://www.w3.org/2000/svg" width="85.627" height="80.253"><path d="M67.247 3H46.855a2.421 2.421 0 00-1.692.684L4.394 43.726a4.643 4.643 0 000 6.633l19.407 19.067a4.848 4.848 0 006.753 0L71.313 29.4a2.335 2.335 0 00.7-1.662V7.693a4.629 4.629 0 00-1.387-3.32A4.8 4.8 0 0067.247 3z" fill="none" stroke="#fff" stroke-linecap="round" stroke-linejoin="round" stroke-width="6"/><path d="M58.738 21.252a5.216 5.216 0 115.308-5.215 5.262 5.262 0 01-5.308 5.215z" fill="#fff"/><path d="M38.5 76.01l43.463-42.7a2.23 2.23 0 00.663-1.63V10.822" fill="none" stroke="#fff" stroke-linecap="round" stroke-linejoin="round" stroke-width="6"/></svg>