<svg xmlns="http://www.w3.org/2000/svg" width="37.536" height="30.446"><path d="M11.887 30.446c14.18 0 21.9-11.678 21.9-21.9V7.507a16.951 16.951 0 003.754-3.962A17.311 17.311 0 0133.157 4.8 8.113 8.113 0 0036.494.629 19.128 19.128 0 0131.7 2.5 7.448 7.448 0 0026.067 0a7.835 7.835 0 00-7.716 7.716 4.066 4.066 0 00.209 1.668A21.56 21.56 0 012.711 1.251a7.986 7.986 0 00-1.043 3.962A8.285 8.285 0 005 11.678a7.03 7.03 0 01-3.545-1.043 7.621 7.621 0 006.256 7.507 6.429 6.429 0 01-2.085.209 3.549 3.549 0 01-1.46-.209 7.9 7.9 0 007.3 5.422A15.745 15.745 0 011.877 26.9 5.774 5.774 0 010 26.693a19.683 19.683 0 0011.887 3.754" fill="#fff" fill-rule="evenodd"/></svg>